<?xml version="1.0" standalone="no"?>
<!DOCTYPE svg PUBLIC "-//W3C//DTD SVG 20010904//EN"
 "http://www.w3.org/TR/2001/REC-SVG-20010904/DTD/svg10.dtd">
<svg version="1.0" xmlns="http://www.w3.org/2000/svg"
 width="512.000000pt" height="512.000000pt" viewBox="0 0 512.000000 512.000000"
 preserveAspectRatio="xMidYMid meet">

<g transform="translate(0.000000,512.000000) scale(0.100000,-0.100000)"
fill="#000000" stroke="none">
<path d="M2315 5109 c-800 -83 -1501 -518 -1927 -1196 -604 -960 -491 -2229
272 -3065 423 -463 951 -740 1585 -830 118 -17 511 -16 635 0 579 80 1097 337
1491 739 130 132 157 163 243 277 256 341 423 757 488 1211 17 118 17 512 0
630 -43 303 -122 561 -247 814 -134 268 -270 459 -483 674 -395 400 -889 649
-1457 733 -123 18 -478 26 -600 13z m464 -1307 c58 -108 186 -357 286 -552
100 -195 216 -418 257 -495 41 -77 168 -322 282 -544 114 -222 216 -417 227
-435 10 -17 19 -34 19 -38 0 -5 -98 -8 -219 -8 -163 0 -221 3 -228 13 -6 6
-77 143 -158 302 -81 160 -177 344 -213 410 -35 66 -129 247 -209 402 -91 178
-149 280 -156 277 -7 -2 -45 -71 -86 -152 -40 -81 -137 -268 -216 -417 -78
-148 -155 -294 -169 -323 l-27 -53 63 6 c35 3 187 17 338 31 397 36 427 38
415 26 -10 -11 -258 -135 -475 -238 -69 -32 -228 -109 -353 -171 l-228 -113
-219 0 c-153 0 -220 3 -220 11 0 6 8 23 19 37 10 15 71 131 136 257 152 297
380 736 415 800 15 28 110 210 210 405 231 452 394 759 400 759 3 0 52 -88
109 -197z"/>
</g>
</svg>
